<?xml version="1.0" encoding="UTF-8"?>
<svg width="250px" height="78px" viewBox="0 0 250 78" version="1.1" xmlns="http://www.w3.org/2000/svg" xmlns:xlink="http://www.w3.org/1999/xlink">
    <title>logo_verwater</title>
    <g id="Page-1" stroke="none" stroke-width="1" fill="none" fill-rule="evenodd">
        <g id="logo_verwater" fill-rule="nonzero">
            <path d="M89.9538876,50.6402956 L87.9399428,22.424234 L95.9540543,22.424234 L95.9123865,34.028723 C95.9123865,36.3135087 95.7248812,38.5566266 95.6623795,40.8414123 L95.7387705,40.8414123 C96.4332343,38.5566266 96.898525,36.3135087 97.6693797,34.028723 L101.600044,22.424234 L109.871108,22.424234 L97.7388261,50.6402956 L89.9538876,50.6402956 Z" id="Path" fill="#194786"></path>
            <polygon id="Path" fill="#194786" points="111.780883 22.424234 125.968777 22.424234 124.913192 29.0910859 118.364399 29.0910859 117.746326 33.014806 123.621489 33.014806 122.565905 39.6816578 116.690741 39.6816578 115.996278 43.9803883 122.545071 43.9803883 121.489486 50.6402956 107.322426 50.6402956"></polygon>
            <path d="M135.830162,50.6402956 L133.462041,38.8899692 L133.37176,38.9663602 C133.1912,40.3552876 133.052307,41.7442151 132.830079,43.1331426 L131.642546,50.6541848 L124.003445,50.6541848 L128.461902,22.4381233 L135.830162,22.4381233 C142.455346,22.4381233 146.941582,24.3895664 145.760993,31.8342176 C145.383078,35.0272907 143.268486,37.7487255 140.267785,38.9038584 L144.09428,50.6541848 L135.830162,50.6402956 Z M134.52457,35.4870969 C136.54546,35.4870969 137.906609,33.7301036 138.198283,31.8967194 C138.587183,29.4244285 137.253813,28.3757882 135.142643,28.4869024 L134.04539,35.4315398 L134.52457,35.4870969 Z" id="Shape" fill="#194786"></path>
            <path d="M161.893386,50.6402956 L161.643379,39.1955332 C161.594767,36.9107475 161.796161,34.9245812 161.837829,32.9800828 L161.768382,32.9800828 C161.268369,34.9245812 160.879469,36.9107475 160.185005,39.1955332 L156.768244,50.6402956 L149.358316,50.6402956 L147.531876,22.424234 L155.052918,22.424234 L154.934859,33.8064946 C154.934859,35.8898858 154.802911,37.973277 154.733465,40.0566682 L154.809856,40.0566682 C155.365427,37.973277 155.726548,35.8898858 156.434901,33.8064946 L160.212784,22.424234 L166.761577,22.424234 L166.942137,33.8064946 C166.942137,35.8898858 166.858802,37.8829967 166.831023,39.9386094 L166.907414,39.9386094 C167.407428,38.1816162 167.824106,36.0148893 168.511625,33.8064946 L171.983944,22.424234 L179.442485,22.424234 L169.289425,50.6402956 L161.893386,50.6402956 Z" id="Path" fill="#194786"></path>
            <path d="M186.560738,50.6402956 L186.560738,47.0151949 L181.435595,47.0151949 L180.227229,50.6402956 L172.379788,50.6402956 L183.609267,22.424234 L192.92897,22.424234 L194.45679,50.6402956 L186.560738,50.6402956 Z M186.62324,41.0289175 L186.831579,34.4801244 C186.887136,32.7161866 187.019084,30.9244701 187.116309,29.1605322 L187.039918,29.1605322 C186.532959,30.9244701 186.067669,32.7161866 185.484319,34.4801244 L183.400928,41.0289175 L186.62324,41.0289175 Z" id="Shape" fill="#194786"></path>
            <polygon id="Path" fill="#194786" points="196.85269 50.6402956 200.227784 29.3133143 196.061002 29.3133143 197.15131 22.424234 213.353149 22.424234 212.269785 29.3133143 207.887719 29.3133143 204.51957 50.6402956"></polygon>
            <polygon id="Path" fill="#194786" points="215.82544 22.424234 230.013334 22.424234 228.957749 29.0910859 222.408956 29.0910859 221.804772 33.014806 227.679936 33.014806 226.624351 39.6816578 220.749187 39.6816578 220.054724 43.9803883 226.603517 43.9803883 225.554877 50.6402956 211.387816 50.6402956"></polygon>
            <path d="M239.860829,50.6402956 L237.492708,38.8899692 L237.402428,38.9663602 C237.221867,40.3552876 237.07603,41.7442151 236.860746,43.1331426 L235.694047,50.6402956 L228.054946,50.6402956 L232.520348,22.424234 L239.860829,22.424234 C246.486014,22.424234 250.972249,24.3756771 249.791661,31.8203283 C249.413993,35.015668 247.295879,37.7381935 244.291508,38.8899692 L248.124948,50.6402956 L239.860829,50.6402956 Z M238.555238,35.4870969 C240.576127,35.4870969 241.937276,33.7301036 242.228951,31.8967194 C242.61785,29.4244285 241.28448,28.3757882 239.17331,28.4869024 L238.069113,35.4315398 L238.555238,35.4870969 Z" id="Shape" fill="#194786"></path>
            <polygon id="Path" fill="#FF6310" points="68.154671 22.4381233 57.9599433 39.7024917 57.9599433 22.4381233 46.9526931 22.4381233 46.9526931 39.7024917 36.7649101 22.4381233 16.6462957 22.4381233 0 50.6402956 11.0072502 50.6402956 21.1950332 33.3689825 21.1950332 50.6402956 32.209228 50.6402956 32.209228 33.3689825 42.397011 50.6402956 62.5156254 50.6402956 79.1619212 22.4381233"></polygon>
            <rect id="Rectangle" fill="#194786" x="0" y="67.7102142" width="87.9399428" height="2.51395872"></rect>
            <rect id="Rectangle" fill="#194786" x="0" y="71.7589377" width="87.9399428" height="1.25697936"></rect>
            <rect id="Rectangle" fill="#194786" x="162.053113" y="67.7102142" width="87.9399428" height="2.51395872"></rect>
            <rect id="Rectangle" fill="#194786" x="162.053113" y="71.7589377" width="87.9399428" height="1.25697936"></rect>
            <rect id="Rectangle" fill="#194786" x="0" y="2.72229784" width="250" height="2.77785494"></rect>
            <rect id="Rectangle" fill="#194786" x="0" y="0" width="250" height="1.38892747"></rect>
            <polygon id="Path" fill="#AA8B3E" points="94.197061 69.0088614 94.197061 66.6893525 96.1068363 65.4879302 98.0305008 65.4879302 98.0305008 74.6340176 95.6762688 74.6340176 95.6762688 68.1060585"></polygon>
            <path d="M103.808439,74.7242979 C101.336148,74.7242979 100.100003,73.1617545 100.100003,70.0366677 C100.100003,66.9115809 101.336148,65.3490375 103.808439,65.3490375 C106.271471,65.3490375 107.505301,66.9115809 107.509944,70.0366677 C107.514561,73.1617545 106.28073,74.7242979 103.808439,74.7242979 Z M102.461179,70.050557 C102.402584,70.7651211 102.529359,71.4827157 102.829245,72.1339482 C103.027909,72.4837749 103.399194,72.6999034 103.801494,72.6999034 C104.203795,72.6999034 104.57508,72.4837749 104.773744,72.1339482 C105.080659,71.4848261 105.210055,70.765958 105.148754,70.050557 C105.148754,68.2588405 104.685778,67.3629823 103.759827,67.3629823 C102.833875,67.3629823 102.400993,68.2588405 102.461179,70.050557 Z" id="Shape" fill="#AA8B3E"></path>
            <path d="M112.676741,74.7242979 C110.20908,74.7242979 108.975249,73.1617545 108.975249,70.0366677 C108.975249,66.9115809 110.20908,65.3490375 112.676741,65.3490375 C115.149032,65.3490375 116.382862,66.9115809 116.378246,70.0366677 C116.373603,73.1617545 115.139772,74.7242979 112.676741,74.7242979 Z M111.329481,70.050557 C111.26818,70.765958 111.397576,71.4848261 111.704492,72.1339482 C111.902802,72.4802997 112.270694,72.6946827 112.669796,72.6964641 C113.073096,72.6967797 113.446104,72.4824985 113.64899,72.1339482 C113.955906,71.4848261 114.085302,70.765958 114.024001,70.050557 C114.024001,68.2588405 113.561025,67.3629823 112.635073,67.3629823 C111.780883,67.3629823 111.329481,68.2588405 111.329481,70.050557 L111.329481,70.050557 Z" id="Shape" fill="#AA8B3E"></path>
            <path d="M122.239507,67.7727159 L124.684019,67.7727159 L125.725715,71.7103253 L126.753521,67.7727159 L129.184144,67.7727159 L126.684075,74.4812356 C126.420146,75.2753907 126.020718,76.0178567 125.503486,76.675741 C125.145436,77.0869695 124.625064,77.3205024 124.079836,77.3146476 C123.567378,77.3291341 123.057901,77.2319781 122.586739,77.0299175 L122.586739,75.3145921 C122.875996,75.4211193 123.181315,75.477486 123.489541,75.4812634 C123.742551,75.4588053 123.970844,75.3202906 124.107614,75.106253 C124.352274,74.7607546 124.529027,74.3718975 124.628462,73.9603878 L122.239507,67.7727159 Z" id="Path" fill="#AA8B3E"></path>
            <path d="M130.135559,71.2589239 C130.085571,70.3279993 130.352392,69.4075925 130.892525,68.6477402 C132.193653,67.3497598 134.299861,67.3497598 135.600989,68.6477402 C136.138136,69.3151392 136.418936,70.1526114 136.392678,71.0089169 C136.394036,71.257229 136.380121,71.5053896 136.35101,71.7519931 L132.496736,71.7519931 C132.503345,72.08088 132.672385,72.385153 132.948137,72.5645157 C133.245486,72.7782544 133.602805,72.8924991 133.968999,72.8909136 C134.721747,72.9104677 135.465724,72.7256732 136.121837,72.3561766 L136.121837,74.0159449 C135.043682,74.6268451 133.789568,74.8521937 132.566182,74.6548515 C132.260166,74.5963218 131.965017,74.4909114 131.691158,74.3423428 C131.393654,74.1955 131.127219,73.9927266 130.906414,73.745104 C130.654623,73.4544861 130.467601,73.1135846 130.357788,72.7450763 C130.20158,72.2654976 130.126473,71.7632193 130.135559,71.2589239 L130.135559,71.2589239 Z M132.545348,70.3283425 L134.087058,70.3283425 C134.064369,70.0530756 133.983914,69.7856822 133.85094,69.5435984 C133.768762,69.3191776 133.555197,69.1699474 133.316203,69.1699474 C133.07721,69.1699474 132.863644,69.3191776 132.781466,69.5435984 C132.646537,69.7844093 132.568168,70.0527637 132.552293,70.3283425 L132.545348,70.3283425 Z" id="Shape" fill="#AA8B3E"></path>
            <path d="M137.5941,72.5992389 C137.597341,72.4568435 137.613613,72.315044 137.642712,72.175616 C137.693581,71.990679 137.773264,71.814909 137.87883,71.6547682 C138.006073,71.4437883 138.170824,71.2578549 138.364955,71.1061418 C138.637187,70.9211191 138.940718,70.7870009 139.260813,70.7102975 C139.714124,70.5922021 140.181358,70.536134 140.64974,70.5436262 L141.267813,70.5436262 C141.297775,70.2507174 141.19893,69.9592507 140.996972,69.7449929 C140.818651,69.5877264 140.588883,69.5012546 140.351121,69.5019306 C139.635292,69.5088539 138.92766,69.6550978 138.26773,69.9324981 L138.26773,68.1407817 C138.981369,67.8432393 139.744744,67.6830249 140.517792,67.6685463 C141.364728,67.6148927 142.199956,67.8883303 142.85119,68.4324565 C143.428972,69.0170628 143.729649,69.820554 143.677602,70.6408511 L143.677602,72.2589516 C143.7368,72.9500187 143.481744,73.6310178 142.983138,74.1131698 C142.251649,74.5763189 141.386327,74.7816495 140.524737,74.6965193 C138.580238,74.7057789 137.603359,74.0066854 137.5941,72.5992389 Z M139.955277,72.1964499 C139.955277,72.6825745 140.17056,72.8909136 140.608072,72.8909136 L140.608072,72.8909136 C140.813655,72.8985081 141.008363,72.798523 141.121976,72.6270174 C141.239264,72.4681463 141.302536,72.2758664 141.302536,72.0783911 L141.302536,71.4950415 L140.84419,71.4950415 C140.253896,71.5019862 139.955277,71.7381038 139.955277,72.1964499 L139.955277,72.1964499 Z" id="Shape" fill="#AA8B3E"></path>
            <path d="M145.462374,74.6201283 L145.462374,68.460235 C146.703636,67.9507261 148.030509,67.682052 149.372205,67.6685463 L149.372205,69.7033251 C148.85392,69.7078195 148.336528,69.7472619 147.823551,69.8213839 L147.823551,74.6409622 L145.462374,74.6201283 Z" id="Path" fill="#AA8B3E"></path>
            <path d="M150.504181,69.953332 C150.466481,69.2979955 150.755007,68.6663573 151.275035,68.2657852 C151.847107,67.8583157 152.538631,67.6530578 153.240368,67.6824356 C153.932464,67.6794553 154.611325,67.87204 155.198756,68.2380066 L155.198756,69.7866607 C154.722231,69.4877069 154.177171,69.3155826 153.615378,69.2866469 C153.122309,69.2866469 152.872302,69.4463735 152.872302,69.7588822 C152.872302,69.8491625 152.976472,69.9394428 153.177866,70.029723 L153.913998,70.3422317 C154.209579,70.462744 154.497203,70.6019172 154.775133,70.75891 C155.058655,70.9317484 155.296758,71.1698516 155.469596,71.4533737 C155.676389,71.7814494 155.782613,72.1628875 155.77516,72.5506264 C155.789138,73.1591044 155.506908,73.7365121 155.018195,74.0992805 C154.45009,74.5161169 153.756837,74.7267877 153.052863,74.6965193 C152.230361,74.6983498 151.425716,74.4567145 150.740298,74.0020556 L150.740298,72.175616 C151.318436,72.6853976 152.053647,72.9819329 152.82369,73.0159171 C153.233423,73.0159171 153.434818,72.8909136 153.434818,72.6409067 C153.434818,72.5159032 153.337593,72.4117337 153.136198,72.3145087 C152.934804,72.2172838 152.691741,72.1200589 152.400067,72.0158893 C152.103735,71.9024144 151.81393,71.7725815 151.531987,71.6269896 C151.227597,71.4673468 150.972944,71.2271081 150.795855,70.9325259 C150.605656,70.641354 150.50431,70.3011207 150.504181,69.953332 L150.504181,69.953332 Z" id="Path" fill="#AA8B3E"></path>
        </g>
    </g>
</svg>