<?xml version="1.0" encoding="utf-8"?>
<!-- Generator: Adobe Illustrator 26.1.0, SVG Export Plug-In . SVG Version: 6.00 Build 0)  -->
<svg version="1.1" id="Laag_1" xmlns="http://www.w3.org/2000/svg" xmlns:xlink="http://www.w3.org/1999/xlink" x="0px" y="0px"
	 viewBox="0 0 540.6 174.1" style="enable-background:new 0 0 540.6 174.1;" xml:space="preserve">
<style type="text/css">
	.st0{fill-rule:evenodd;clip-rule:evenodd;fill:#003B60;}
	.st1{fill-rule:evenodd;clip-rule:evenodd;fill:#E63429;}
	.st2{fill:#F28C00;}
	.st3{fill:#92ACBE;}
</style>
<path class="st0" d="M504.1,1.7h24.3c6.4,0,11.6,5.5,11.6,12.4v45c0,6.8-5.2,12.4-11.6,12.4h-24.3c-6.4,0-11.6-5.5-11.6-12.4v-45
	C492.4,7.2,497.6,1.7,504.1,1.7L504.1,1.7z"/>
<path class="st1" d="M432.4,1.7h24.3c6.4,0,11.6,5.5,11.6,12.4v45c0,6.8-5.2,12.4-11.6,12.4h-24.3c-6.4,0-11.6-5.5-11.6-12.4v-45
	C420.8,7.2,426,1.7,432.4,1.7L432.4,1.7z"/>
<path class="st2" d="M18.2,145.9v20.7H7v-20.7H0v-7.6h25.2v7.6H18.2L18.2,145.9z M39.8,166.6v-12.2c0-1.5-0.6-2.3-1.7-2.3
	c-0.5,0-1,0.2-1.3,0.5c-0.4,0.3-0.5,0.9-0.5,1.7v12.3h-9.5v-28.3h9.5v11.3h0.1c0.3-0.5,0.7-1,1.1-1.4c0.4-0.4,0.8-0.7,1.3-1
	c0.5-0.3,1-0.5,1.6-0.6c0.6-0.1,1.3-0.2,2.1-0.2c1,0,1.9,0.1,2.7,0.4c0.8,0.3,1.6,0.7,2.2,1.2c0.6,0.6,1.1,1.3,1.4,2.2
	c0.3,0.9,0.5,2,0.5,3.3v13.1H39.8L39.8,166.6z M60.8,158.5v0.6c0,1.2,0.2,2,0.6,2.5c0.4,0.5,1.1,0.8,2,0.8c0.5,0,1-0.2,1.5-0.5
	c0.5-0.3,0.8-0.8,0.9-1.6h8.3c-0.4,2.3-1.5,4-3.3,5.1c-1.8,1.2-4.6,1.8-8.2,1.8c-1.4,0-2.8-0.2-4.1-0.5c-1.3-0.4-2.5-0.9-3.5-1.8
	c-1-0.8-1.8-1.9-2.4-3.3c-0.6-1.3-0.9-3-0.9-5c0-1.7,0.3-3.2,0.8-4.5c0.5-1.3,1.3-2.4,2.4-3.2c1-0.9,2.2-1.5,3.7-2
	c1.4-0.4,3-0.7,4.8-0.7c3.7,0,6.5,0.9,8.3,2.8c1.8,1.8,2.7,4.5,2.7,8.1v1.3H60.8L60.8,158.5z M65.8,154c0-0.9-0.2-1.7-0.7-2.1
	c-0.4-0.5-1-0.7-1.8-0.7c-0.8,0-1.4,0.2-1.8,0.7c-0.5,0.5-0.7,1.2-0.7,2.1v0.3h5V154L65.8,154z M118.4,158.5
	c-0.7,1.7-1.6,3.2-2.9,4.4c-1.2,1.2-2.7,2.1-4.5,2.7c-1.8,0.6-3.7,1-5.9,1h-14v-28.3h13.3c2.8,0,5.2,0.4,7.1,1.1
	c1.9,0.7,3.5,1.7,4.6,3c1.2,1.3,2,2.8,2.5,4.6c0.5,1.8,0.7,3.7,0.7,5.8C119.4,154.9,119.1,156.8,118.4,158.5L118.4,158.5z
	 M107.6,148.9c-0.1-1-0.4-1.8-0.8-2.4c-0.4-0.6-0.8-1-1.4-1.3c-0.5-0.3-1.3-0.5-2.2-0.5h-1.1v15.5h1.1c0.9,0,1.6-0.2,2.2-0.5
	s1-0.8,1.4-1.3c0.4-0.6,0.6-1.4,0.8-2.4c0.1-1,0.2-2.2,0.2-3.6C107.8,151,107.7,149.8,107.6,148.9L107.6,148.9z M135.1,166.6l-0.2-3
	h-0.1c-0.8,1.4-1.8,2.4-2.9,2.8c-1.1,0.5-2.2,0.7-3.3,0.7c-1,0-1.9-0.1-2.7-0.4c-0.8-0.3-1.6-0.7-2.2-1.2c-0.6-0.6-1.1-1.3-1.4-2.2
	c-0.3-0.9-0.5-2-0.5-3.3v-13.1h9.5v12.2c0,1.5,0.6,2.3,1.7,2.3c0.5,0,1-0.2,1.3-0.5c0.4-0.3,0.5-0.9,0.5-1.7v-12.3h9.5v19.7H135.1
	L135.1,166.6z M158,152.7v6c0,0.8,0.1,1.3,0.4,1.6c0.2,0.3,0.7,0.4,1.2,0.4c0.3,0,0.7,0,1.1,0c0.4,0,0.8-0.1,1.2-0.2v5.8
	c-1.1,0.2-2.2,0.4-3.3,0.6c-1.1,0.2-2.1,0.3-3,0.3c-0.9,0-1.8-0.1-2.7-0.3c-0.9-0.2-1.6-0.5-2.3-0.9c-0.7-0.4-1.2-1-1.6-1.7
	c-0.4-0.7-0.6-1.6-0.6-2.7v-9H146v-5.8h2.6v-3.2l9.5-3.3v6.5h4.3v5.8H158L158,152.7z M177,152.1c-0.2-0.6-0.8-1-1.6-1
	c-0.4,0-0.7,0.1-1,0.2c-0.3,0.1-0.5,0.4-0.7,0.8c-0.2,0.4-0.3,1-0.4,1.8c-0.1,0.8-0.1,1.8-0.1,3c0,1.2,0,2.1,0.1,2.8
	c0.1,0.7,0.2,1.2,0.4,1.6c0.2,0.4,0.4,0.6,0.7,0.7c0.3,0.1,0.6,0.2,1,0.2c0.8,0,1.3-0.3,1.6-0.9c0.3-0.6,0.5-1.5,0.6-2.8h8.8
	c-0.1,2.7-1,4.9-2.8,6.3c-1.8,1.5-4.7,2.2-8.6,2.2c-1.5,0-3-0.2-4.4-0.5c-1.4-0.4-2.6-0.9-3.6-1.8c-1-0.8-1.9-1.9-2.5-3.3
	c-0.6-1.3-0.9-3-0.9-5c0-1.7,0.3-3.2,0.8-4.5c0.5-1.3,1.3-2.4,2.3-3.2c1-0.9,2.2-1.5,3.7-2c1.4-0.4,3-0.7,4.8-0.7
	c1.9,0,3.6,0.2,4.9,0.6c1.4,0.4,2.5,1,3.4,1.7c0.9,0.7,1.6,1.7,2,2.7c0.4,1.1,0.7,2.3,0.8,3.6h-8.8
	C177.3,153.7,177.2,152.8,177,152.1L177,152.1z M201.7,166.6v-12.2c0-1.5-0.6-2.3-1.7-2.3c-0.5,0-1,0.2-1.3,0.5
	c-0.4,0.3-0.5,0.9-0.5,1.7v12.3h-9.5v-28.3h9.5v11.3h0.1c0.3-0.5,0.7-1,1.1-1.4c0.4-0.4,0.8-0.7,1.3-1c0.5-0.3,1-0.5,1.6-0.6
	c0.6-0.1,1.3-0.2,2.1-0.2c1,0,1.9,0.1,2.7,0.4c0.8,0.3,1.6,0.7,2.2,1.2c0.6,0.6,1.1,1.3,1.4,2.2c0.3,0.9,0.5,2,0.5,3.3v13.1H201.7
	L201.7,166.6z M242.3,144.4c-0.4-0.3-1-0.5-1.8-0.5c-0.9,0-1.6,0.2-2,0.5c-0.4,0.3-0.6,0.7-0.6,1.2c0,0.5,0.2,0.9,0.5,1.2
	c0.3,0.2,0.8,0.5,1.4,0.6c0.5,0.2,1.2,0.3,1.9,0.5c0.7,0.2,1.5,0.4,2.3,0.6c0.8,0.2,1.6,0.4,2.5,0.7c0.8,0.2,1.6,0.5,2.3,0.8
	c1.8,0.8,3.1,1.8,3.9,3c0.8,1.2,1.2,2.7,1.2,4.5c0,1.7-0.3,3.2-1,4.5c-0.7,1.2-1.6,2.3-2.8,3.1c-1.2,0.8-2.7,1.4-4.3,1.8
	c-1.7,0.4-3.5,0.6-5.5,0.6c-1.7,0-3.3-0.2-4.9-0.5c-1.6-0.3-3-0.8-4.2-1.5c-1.2-0.7-2.2-1.7-2.9-2.9c-0.7-1.2-1.1-2.8-1.1-4.6h10.8
	c0,0.4,0,0.8,0.1,1.2c0.1,0.4,0.2,0.7,0.5,1c0.5,0.6,1.2,0.9,2.2,0.9c0.8,0,1.5-0.2,2-0.7c0.5-0.5,0.7-1,0.7-1.6
	c0-0.5-0.2-0.9-0.5-1.2c-0.4-0.3-0.8-0.5-1.3-0.7l-8-2.4c-2.2-0.7-3.7-1.6-4.6-2.9c-0.9-1.3-1.3-2.8-1.3-4.7c0-3,1.1-5.2,3.4-6.8
	c2.3-1.6,5.5-2.4,9.6-2.4c1.8,0,3.4,0.2,4.9,0.5c1.5,0.3,2.8,0.8,3.9,1.5c1.1,0.7,2,1.6,2.6,2.7c0.6,1.1,0.9,2.5,0.9,4.2H243
	C243,145.4,242.7,144.8,242.3,144.4L242.3,144.4z M266.9,152.7v6c0,0.8,0.1,1.3,0.4,1.6c0.2,0.3,0.7,0.4,1.2,0.4c0.3,0,0.7,0,1.1,0
	c0.4,0,0.8-0.1,1.2-0.2v5.8c-1.1,0.2-2.2,0.4-3.3,0.6c-1.1,0.2-2.1,0.3-3,0.3c-0.9,0-1.8-0.1-2.7-0.3c-0.9-0.2-1.6-0.5-2.3-0.9
	c-0.7-0.4-1.2-1-1.6-1.7c-0.4-0.7-0.6-1.6-0.6-2.7v-9h-2.6v-5.8h2.6v-3.2l9.5-3.3v6.5h4.3v5.8H266.9L266.9,152.7z M281.5,158.5v0.6
	c0,1.2,0.2,2,0.6,2.5c0.4,0.5,1.1,0.8,2,0.8c0.5,0,1-0.2,1.5-0.5c0.5-0.3,0.8-0.8,0.9-1.6h8.3c-0.4,2.3-1.5,4-3.3,5.1
	c-1.8,1.2-4.6,1.8-8.2,1.8c-1.4,0-2.8-0.2-4.1-0.5c-1.3-0.4-2.5-0.9-3.5-1.8c-1-0.8-1.8-1.9-2.4-3.3c-0.6-1.3-0.9-3-0.9-5
	c0-1.7,0.3-3.2,0.8-4.5c0.5-1.3,1.3-2.4,2.4-3.2c1-0.9,2.2-1.5,3.7-2c1.4-0.4,3-0.7,4.8-0.7c3.7,0,6.5,0.9,8.3,2.8
	c1.8,1.8,2.7,4.5,2.7,8.1v1.3H281.5L281.5,158.5z M286.5,154c0-0.9-0.2-1.7-0.7-2.1c-0.4-0.5-1-0.7-1.8-0.7c-0.8,0-1.4,0.2-1.8,0.7
	c-0.5,0.5-0.7,1.2-0.7,2.1v0.3h5V154L286.5,154z M306.2,158.5v0.6c0,1.2,0.2,2,0.6,2.5c0.4,0.5,1.1,0.8,2,0.8c0.5,0,1-0.2,1.5-0.5
	c0.5-0.3,0.8-0.8,0.9-1.6h8.3c-0.4,2.3-1.5,4-3.3,5.1c-1.8,1.2-4.6,1.8-8.2,1.8c-1.4,0-2.8-0.2-4.1-0.5c-1.3-0.4-2.5-0.9-3.5-1.8
	c-1-0.8-1.8-1.9-2.4-3.3c-0.6-1.3-0.9-3-0.9-5c0-1.7,0.3-3.2,0.8-4.5c0.5-1.3,1.3-2.4,2.4-3.2c1-0.9,2.2-1.5,3.7-2
	c1.4-0.4,3-0.7,4.8-0.7c3.7,0,6.5,0.9,8.3,2.8c1.8,1.8,2.7,4.5,2.7,8.1v1.3H306.2L306.2,158.5z M311.2,154c0-0.9-0.2-1.7-0.7-2.1
	c-0.4-0.5-1-0.7-1.8-0.7c-0.8,0-1.4,0.2-1.8,0.7c-0.5,0.5-0.7,1.2-0.7,2.1v0.3h5V154L311.2,154z M322.1,166.6v-28.3h9.5v28.3H322.1
	L322.1,166.6z M365,146.8c-0.2-0.5-0.4-0.9-0.6-1.2c-0.2-0.3-0.5-0.5-0.8-0.6c-0.3-0.1-0.6-0.2-1-0.2c-0.7,0-1.3,0.2-1.7,0.5
	c-0.4,0.4-0.7,0.9-1,1.5c-0.2,0.7-0.4,1.5-0.4,2.4c-0.1,0.9-0.1,2-0.1,3.1c0,1.1,0,2.1,0.1,3c0.1,0.9,0.2,1.7,0.4,2.4
	c0.2,0.7,0.5,1.2,0.9,1.6c0.4,0.4,1,0.6,1.7,0.6c0.7,0,1.3-0.3,1.8-0.8c0.5-0.5,0.7-1.6,0.8-3h10.5c0,2-0.4,3.7-1.1,5.1
	c-0.7,1.4-1.7,2.6-2.9,3.5c-1.2,0.9-2.6,1.6-4.2,2c-1.6,0.4-3.3,0.6-5,0.6c-2.5,0-4.6-0.4-6.5-1.1c-1.8-0.7-3.3-1.7-4.5-3.1
	c-1.2-1.3-2.1-2.9-2.7-4.8c-0.6-1.8-0.9-3.9-0.9-6.1c-0.1-2.2,0.2-4.2,0.8-6c0.6-1.8,1.5-3.4,2.8-4.7c1.2-1.3,2.8-2.3,4.6-3
	c1.8-0.7,4-1.1,6.4-1.1c1.8,0,3.5,0.2,5.1,0.6c1.6,0.4,3,1,4.2,1.9c1.2,0.9,2.2,2,2.9,3.5c0.7,1.4,1.1,3.2,1.1,5.3h-10.3
	C365.2,147.9,365.1,147.3,365,146.8L365,146.8z M400.9,161c-0.5,1.3-1.3,2.4-2.3,3.3c-1,0.9-2.3,1.6-3.8,2.1
	c-1.5,0.5-3.3,0.7-5.3,0.7c-2,0-3.8-0.2-5.3-0.7c-1.5-0.5-2.8-1.2-3.7-2.1c-1-0.9-1.7-2-2.3-3.3c-0.5-1.3-0.8-2.7-0.8-4.3
	s0.3-3,0.8-4.3c0.5-1.3,1.3-2.4,2.3-3.3c1-0.9,2.2-1.6,3.7-2.1c1.5-0.5,3.3-0.7,5.3-0.7c2,0,3.7,0.2,5.3,0.7
	c1.5,0.5,2.8,1.2,3.8,2.1c1,0.9,1.7,2,2.3,3.3c0.5,1.3,0.8,2.7,0.8,4.3S401.4,159.7,400.9,161L400.9,161z M391.3,152.7
	c-0.4-0.7-0.9-1.1-1.7-1.1c-0.8,0-1.3,0.4-1.7,1.1c-0.4,0.7-0.5,2.1-0.5,4c0,2,0.2,3.3,0.5,4c0.4,0.7,0.9,1.1,1.7,1.1
	c0.8,0,1.3-0.4,1.7-1.1c0.4-0.7,0.5-2.1,0.5-4C391.8,154.8,391.6,153.4,391.3,152.7L391.3,152.7z M430,166.6v-12.4
	c0-0.7-0.2-1.2-0.5-1.6c-0.3-0.4-0.7-0.5-1.2-0.5s-0.8,0.2-1.2,0.5c-0.4,0.3-0.5,0.9-0.5,1.7v12.3h-9.5v-12.4c0-0.7-0.2-1.2-0.5-1.6
	c-0.3-0.4-0.7-0.5-1.2-0.5c-0.4,0-0.8,0.2-1.2,0.5c-0.4,0.3-0.5,0.9-0.5,1.7v12.3h-9.5v-19.7h9.3l0.2,3h0.1c0.8-1.4,1.8-2.4,2.9-2.8
	c1.1-0.5,2.2-0.7,3.3-0.7c3.1,0,5.2,1.2,6.4,3.6c0.8-1.4,1.8-2.4,2.9-2.8c1.1-0.5,2.2-0.7,3.3-0.7c1,0,1.9,0.1,2.7,0.4
	c0.8,0.3,1.6,0.7,2.2,1.2c0.6,0.6,1.1,1.3,1.4,2.2c0.3,0.9,0.5,2,0.5,3.3v13.1H430L430,166.6z M465.5,161.7c-0.4,1.3-1,2.4-1.8,3.2
	c-0.7,0.8-1.6,1.4-2.6,1.8c-1,0.4-2,0.5-3.1,0.5c-1.1,0-2.2-0.2-3.2-0.5c-1-0.4-1.9-1-2.7-1.9v9.3h-9.5v-27.2h9l0.2,2.3
	c0.8-1.1,1.8-1.9,2.9-2.3c1.1-0.4,2.2-0.6,3.3-0.6c1.2,0,2.3,0.2,3.3,0.7c1,0.5,1.9,1.1,2.6,2c0.7,0.9,1.3,2,1.7,3.3
	c0.4,1.3,0.6,2.9,0.6,4.6C466.2,158.8,466,160.4,465.5,161.7L465.5,161.7z M456.6,154.8c-0.1-0.6-0.2-1.1-0.3-1.6
	c-0.2-0.4-0.4-0.8-0.7-1c-0.3-0.3-0.7-0.4-1.2-0.4c-0.5,0-0.9,0.1-1.2,0.3c-0.3,0.2-0.5,0.5-0.6,0.7c-0.3,0.5-0.4,1.8-0.4,3.8
	c0,0.9,0,1.5,0,1.9c0,0.4,0.1,0.8,0.1,1.2c0.3,1.2,0.9,1.8,2,1.8c1,0,1.6-0.4,1.8-1.3c0.3-0.8,0.4-2,0.4-3.6
	C456.7,156.1,456.7,155.4,456.6,154.8L456.6,154.8z M480.5,166.6l-0.2-1.9c-0.7,0.9-1.5,1.6-2.5,1.9c-1,0.4-2,0.5-3.1,0.5
	c-1,0-1.9-0.1-2.7-0.4c-0.8-0.3-1.6-0.6-2.2-1.2c-0.6-0.5-1.1-1.1-1.4-1.9c-0.3-0.7-0.5-1.6-0.5-2.6c0-2.4,1-4.2,2.9-5.3
	c1.9-1.1,4.7-1.6,8.4-1.6h1.1v-2c0-0.5-0.1-0.9-0.4-1.2c-0.3-0.3-0.8-0.4-1.4-0.4c-0.6,0-1.1,0.1-1.4,0.4c-0.3,0.3-0.5,0.8-0.5,1.6
	h-7.9c0.1-1.3,0.4-2.4,1-3.3c0.6-0.8,1.4-1.5,2.3-2c0.9-0.5,2-0.8,3.2-1c1.2-0.2,2.4-0.3,3.7-0.3c1.9,0,3.5,0.2,4.8,0.5
	c1.3,0.3,2.3,0.7,3.1,1.3c0.8,0.6,1.3,1.3,1.7,2.2c0.3,0.9,0.5,1.9,0.5,3v13.3H480.5L480.5,166.6z M480.2,158H479
	c-0.6,0-1.1,0.1-1.5,0.2c-0.4,0.1-0.7,0.3-0.9,0.5c-0.2,0.2-0.4,0.5-0.5,0.7c-0.1,0.3-0.1,0.5-0.1,0.8c0,0.6,0.2,1.1,0.5,1.5
	c0.4,0.4,0.9,0.5,1.6,0.5c0.8,0,1.4-0.2,1.7-0.7c0.3-0.5,0.5-1.1,0.5-1.9V158L480.2,158z M504.9,166.6v-12.2c0-1.5-0.6-2.3-1.7-2.3
	c-0.5,0-1,0.2-1.3,0.5c-0.4,0.3-0.5,0.9-0.5,1.7v12.3h-9.5v-19.7h9.3l0.2,3h0.1c0.8-1.4,1.8-2.4,2.9-2.8c1.1-0.5,2.2-0.7,3.3-0.7
	c1,0,1.9,0.1,2.7,0.4c0.8,0.3,1.6,0.7,2.2,1.2c0.6,0.6,1.1,1.3,1.4,2.2c0.3,0.9,0.5,2,0.5,3.3v13.1H504.9L504.9,166.6z M531.3,174.1
	H521l2.6-6.9l-8-20.3h10.1l2.7,10.8h0.1l2.6-10.8h9.5L531.3,174.1L531.3,174.1z"/>
<path class="st3" d="M22.2,92.6c-0.7-0.5-1.5-0.7-2.6-0.7c-1.3,0-2.3,0.2-2.9,0.7c-0.6,0.5-0.9,1-0.9,1.7c0,0.8,0.2,1.3,0.7,1.7
	c0.5,0.4,1.1,0.7,2,0.9c0.8,0.2,1.7,0.5,2.8,0.7c1.1,0.3,2.2,0.6,3.4,0.9c1.2,0.3,2.4,0.6,3.6,1c1.2,0.4,2.3,0.8,3.4,1.2
	c2.6,1.1,4.6,2.6,5.7,4.4c1.2,1.8,1.8,4,1.8,6.5c0,2.5-0.5,4.7-1.5,6.5c-1,1.8-2.4,3.3-4.1,4.5c-1.8,1.2-3.9,2-6.3,2.6
	c-2.4,0.6-5.1,0.8-8,0.8c-2.5,0-4.9-0.2-7.2-0.7c-2.3-0.4-4.4-1.2-6.1-2.2c-1.8-1.1-3.2-2.5-4.2-4.3c-1.1-1.8-1.6-4-1.6-6.8h15.7
	c0,0.6,0.1,1.1,0.2,1.7c0.1,0.6,0.4,1,0.7,1.5c0.7,0.9,1.8,1.3,3.2,1.3c1.2,0,2.2-0.3,2.9-1c0.7-0.7,1.1-1.5,1.1-2.4
	c0-0.8-0.3-1.4-0.8-1.8c-0.5-0.4-1.2-0.8-1.9-1L9.4,107c-3.2-1-5.4-2.4-6.7-4.2c-1.3-1.9-1.9-4.1-1.9-6.8c0-4.3,1.7-7.6,5-10
	c3.3-2.3,8-3.5,14.1-3.5c2.6,0,5,0.2,7.2,0.7c2.2,0.4,4.1,1.2,5.7,2.2c1.6,1,2.9,2.3,3.8,4c0.9,1.6,1.4,3.7,1.4,6.1H23.2
	C23.2,94,22.8,93.1,22.2,92.6L22.2,92.6z M67.4,94.7V125H51V94.7H40.8V83.6h36.8v11.1H67.4L67.4,94.7z M101.5,125l-1.6-6.6H88
	l-1.7,6.6H70.7l13.3-41.4h21.3l13.3,41.4H101.5L101.5,125z M94.2,92.6h-0.1l-3.6,15.6h7L94.2,92.6L94.2,92.6z M147.5,125l-1.6-6.6
	H134l-1.7,6.6h-15.7l13.3-41.4h21.3l13.3,41.4H147.5L147.5,125z M140.2,92.6h-0.1l-3.6,15.6h7L140.2,92.6L140.2,92.6z M166.6,125
	V83.6H183v30.3h15.1V125H166.6L166.6,125z M236,104.7c1.1,0.6,2,1.4,2.8,2.2c0.7,0.9,1.3,1.9,1.6,2.9c0.3,1.1,0.5,2.2,0.5,3.3
	c0,3.6-1.4,6.4-4.1,8.6c-2.7,2.2-6.7,3.3-11.8,3.3h-23.1V83.6h24.6c4.5,0,7.9,0.9,10,2.7c2.2,1.8,3.3,4.5,3.3,8c0,1-0.1,2-0.3,2.9
	c-0.2,0.9-0.6,1.8-1.2,2.6c-0.6,0.8-1.4,1.5-2.4,2.1c-1,0.6-2.3,1.1-3.8,1.4v0.1C233.6,103.6,234.9,104,236,104.7L236,104.7z
	 M223.1,93.2c-0.9-0.6-2.1-0.8-3.8-0.8h-2.1v7.8h2.2c1.9,0,3.2-0.4,3.9-1.1c0.7-0.8,1.1-1.8,1.1-3C224.4,94.7,224,93.8,223.1,93.2
	L223.1,93.2z M219.4,108h-2.1v8.1h2.3c2,0,3.5-0.3,4.3-1c0.9-0.7,1.3-1.8,1.3-3.3C225.1,109.3,223.2,108,219.4,108L219.4,108z
	 M285.6,113.1c-0.9,2.7-2.2,5-4,6.9c-1.8,1.9-4,3.4-6.7,4.5c-2.7,1.1-5.8,1.6-9.3,1.6c-3.6,0-6.7-0.5-9.3-1.6
	c-2.7-1.1-4.9-2.5-6.7-4.5c-1.8-1.9-3.1-4.2-4-6.9c-0.9-2.7-1.3-5.6-1.3-8.8c0-3.2,0.4-6.2,1.3-8.8c0.9-2.7,2.2-5,4-6.9
	c1.8-1.9,4-3.4,6.7-4.5c2.7-1.1,5.8-1.6,9.3-1.6c3.6,0,6.7,0.5,9.3,1.6c2.7,1.1,4.9,2.5,6.7,4.5c1.8,1.9,3.1,4.2,4,6.9
	c0.9,2.7,1.3,5.6,1.3,8.8C286.9,107.5,286.5,110.4,285.6,113.1L285.6,113.1z M269.6,98.6c-0.2-1.4-0.5-2.6-0.9-3.4
	c-0.4-0.8-0.9-1.3-1.4-1.6c-0.6-0.3-1.2-0.4-1.8-0.4c-0.7,0-1.3,0.1-1.8,0.4c-0.6,0.3-1,0.8-1.4,1.6c-0.4,0.8-0.7,1.9-0.9,3.4
	c-0.2,1.4-0.3,3.3-0.3,5.6c0,2.4,0.1,4.3,0.3,5.8c0.2,1.4,0.5,2.5,0.9,3.3c0.4,0.8,0.8,1.3,1.4,1.5c0.5,0.2,1.1,0.4,1.8,0.4
	c0.6,0,1.2-0.1,1.7-0.4c0.6-0.2,1-0.8,1.4-1.5c0.4-0.8,0.7-1.9,0.9-3.3c0.2-1.4,0.3-3.4,0.3-5.8C270,101.9,269.8,100.1,269.6,98.6
	L269.6,98.6z M325.5,122.3c-3.4,2.5-8.3,3.7-14.5,3.7c-6.3,0-11.1-1.2-14.5-3.7c-3.4-2.5-5.1-6.2-5.1-11.2V83.6h16.4v26.8
	c0,1.6,0.3,2.8,1,3.5c0.7,0.7,1.4,1,2.3,1c0.9,0,1.6-0.3,2.3-1c0.7-0.7,1-1.9,1-3.5V83.6h16.4v27.5
	C330.6,116.1,328.9,119.9,325.5,122.3L325.5,122.3z M385,125h-17.8l-3.8-26.8h-0.1l-3.8,26.8h-17.8l-8.9-41.4h14.7l3.5,26l0.1,0
	l3.8-26h17l3.8,26l0.1,0l3.5-26h14.7L385,125L385,125z"/>
<g id="De_Kok">
	<defs>
		<path id="SVGID_1_" d="M68.7,51.9c-1.6,4.2-4,7.8-7.1,10.7c-3.1,2.9-6.8,5.2-11.1,6.8c-4.4,1.6-9.2,2.4-14.6,2.4H1.4V1.9h32.8
			c7,0,12.8,0.9,17.6,2.7c4.7,1.8,8.5,4.2,11.4,7.4c2.8,3.2,4.9,6.9,6.1,11.3c1.2,4.4,1.8,9.2,1.8,14.3
			C71.1,42.9,70.3,47.6,68.7,51.9L68.7,51.9z M41.9,28.1c-0.4-2.4-1-4.4-1.9-5.9c-0.9-1.4-2-2.5-3.4-3.3c-1.4-0.8-3.2-1.2-5.4-1.2
			h-2.7v38.1h2.7c2.3,0,4.1-0.4,5.4-1.2c1.4-0.8,2.5-1.9,3.4-3.3c0.9-1.5,1.5-3.4,1.9-5.9c0.4-2.4,0.5-5.3,0.5-8.8
			C42.5,33.4,42.3,30.5,41.9,28.1L41.9,28.1z M132.4,53.6v18.2h-54V1.9h53.2v18.2h-26.6v7.5h24.6v18.2h-24.6v7.8H132.4L132.4,53.6z
			 M246.7,71.8h-30l-16.1-31.4l-0.2,0v31.4h-27.1V1.9h27.1v30l0.2,0l14.2-30h29.2l-18.7,32.9L246.7,71.8L246.7,71.8z M310.5,51.7
			c-1.5,4.5-3.8,8.4-6.8,11.7c-3,3.3-6.8,5.8-11.3,7.6c-4.5,1.8-9.8,2.7-15.8,2.7c-6,0-11.3-0.9-15.8-2.7c-4.5-1.8-8.3-4.3-11.3-7.6
			c-3-3.3-5.3-7.1-6.8-11.7c-1.5-4.5-2.3-9.5-2.3-14.9c0-5.4,0.8-10.4,2.3-14.9c1.5-4.5,3.8-8.4,6.8-11.7c3-3.3,6.8-5.8,11.3-7.6
			c4.5-1.8,9.8-2.7,15.8-2.7c6,0,11.3,0.9,15.8,2.7c4.5,1.8,8.3,4.3,11.3,7.6c3,3.3,5.3,7.1,6.8,11.7c1.5,4.5,2.3,9.5,2.3,14.9
			C312.8,42.2,312.1,47.2,310.5,51.7L310.5,51.7z M283.6,27.3c-0.4-2.4-0.9-4.3-1.5-5.7c-0.6-1.4-1.4-2.3-2.4-2.7
			c-0.9-0.5-2-0.7-3.1-0.7c-1.1,0-2.1,0.2-3,0.7c-0.9,0.5-1.7,1.4-2.4,2.7c-0.6,1.4-1.1,3.2-1.5,5.7c-0.4,2.4-0.5,5.6-0.5,9.5
			c0,4.1,0.2,7.3,0.6,9.7c0.4,2.4,0.9,4.3,1.5,5.6c0.6,1.3,1.4,2.2,2.3,2.6c0.9,0.4,1.9,0.6,3,0.6c1,0,2-0.2,3-0.6
			c0.9-0.4,1.7-1.3,2.4-2.6c0.6-1.3,1.2-3.2,1.5-5.6c0.4-2.4,0.6-5.7,0.6-9.7C284.1,32.9,284,29.7,283.6,27.3L283.6,27.3z
			 M393.5,71.8h-30l-16.1-31.4l-0.2,0v31.4h-27.1V1.9h27.1v30l0.2,0l14.2-30h29.2l-18.7,32.9L393.5,71.8L393.5,71.8z"/>
	</defs>
	<use xlink:href="#SVGID_1_"  style="overflow:visible;fill:#1B0B41;"/>
	<clipPath id="SVGID_00000182518127155165567630000011741020066053464194_">
		<use xlink:href="#SVGID_1_"  style="overflow:visible;"/>
	</clipPath>
	<g style="clip-path:url(#SVGID_00000182518127155165567630000011741020066053464194_);">
		
			<image style="overflow:visible;" width="14170" height="5122" xlink:href="8ECDFD6547693054.jpg"  transform="matrix(4.574178e-02 0 0 4.574178e-02 -44.3957 -21.2061)">
		</image>
	</g>
</g>
</svg>
