<?xml version="1.0" encoding="UTF-8"?>
<svg id="Laag_1" data-name="Laag 1" xmlns="http://www.w3.org/2000/svg" version="1.1" viewBox="0 0 318.8 47.1">
  <defs>
    <style>
      .cls-1 {
        fill: #497cab;
      }

      .cls-1, .cls-2 {
        stroke-width: 0px;
      }

      .cls-2 {
        fill: #000;
      }
    </style>
  </defs>
  <g>
    <g>
      <path class="cls-2" d="M71.5,46.6l-9.1-28.2h6.2l4.2,13.5,2.2,8.8h.1l2.1-8.8,4.2-13.5h6l-9.2,28.2h-6.9Z"/>
      <path class="cls-2" d="M95.9,47.1c-1.6,0-3-.3-4.2-.8-1.2-.5-2.3-1.3-3.1-2.2-.8-1-1.5-2.1-2-3.5-.5-1.4-.7-2.9-.7-4.6s.2-3.2.7-4.6,1.1-2.5,2-3.5c.8-1,1.9-1.7,3.1-2.2,1.2-.5,2.6-.8,4.2-.8s3,.3,4.2.8c1.2.5,2.3,1.2,3.1,2.2.8,1,1.5,2.1,2,3.5s.7,2.9.7,4.6-.2,3.2-.7,4.6c-.5,1.4-1.1,2.5-2,3.5-.8,1-1.9,1.7-3.1,2.2-1.2.5-2.6.8-4.2.8ZM95.9,42.3c1.2,0,2.1-.4,2.7-1.1.6-.7,1-1.8,1-3.1v-4.3c0-1.3-.3-2.4-1-3.1-.6-.7-1.6-1.1-2.7-1.1s-2.1.4-2.7,1.1c-.6.7-1,1.8-1,3.1v4.3c0,1.3.3,2.4,1,3.1.6.7,1.6,1.1,2.7,1.1Z"/>
      <path class="cls-2" d="M119,16.7h6v17.6h.2l2.6-3.9,4.2-5h6.6l-7.1,8.1,7.9,13.1h-7.1l-4.8-9-2.7,3v6h-6v-29.9Z"/>
      <path class="cls-2" d="M149.4,47.1c-1.6,0-3.1-.3-4.3-.8-1.3-.5-2.3-1.3-3.2-2.2-.9-1-1.5-2.1-2-3.5-.4-1.4-.7-2.9-.7-4.6s.2-3.2.6-4.5,1.1-2.5,1.9-3.5c.8-1,1.9-1.7,3.1-2.2,1.2-.5,2.7-.8,4.2-.8s3.3.3,4.5.9c1.3.6,2.3,1.4,3.1,2.4.8,1,1.4,2.1,1.7,3.5s.5,2.7.5,4.1v1.8h-13.6v.3c0,1.4.4,2.5,1.1,3.3.8.8,1.9,1.2,3.6,1.2s2.2-.2,3-.7c.8-.5,1.5-1.1,2.2-1.8l3,3.7c-.9,1.1-2.2,2-3.7,2.6-1.5.6-3.2.9-5.2.9ZM149.3,29.3c-1.2,0-2.2.4-2.8,1.2-.7.8-1,1.9-1,3.2v.3h7.4v-.4c0-1.3-.3-2.3-.9-3.1-.6-.8-1.5-1.2-2.7-1.2Z"/>
    </g>
    <g>
      <path class="cls-2" d="M172.9,25.5c-.3,0-.6.1-.9.3-.6.3-1.2.6-1.6,1s-.8.9-1.1,1.5c-.3.6-.5,1.1-.6,1.7h-.2v-4.6h-6v21.2h6v-12.4c0-1.2.4-2.1,1.3-2.5.8-.5,2.1-.7,3.9-.7h.4l-1.2-5.5Z"/>
      <path class="cls-1" d="M218.1,47.1c-1.6,0-3.1-.3-4.3-.8-1.3-.5-2.3-1.3-3.2-2.2-.9-1-1.5-2.1-2-3.5-.4-1.4-.7-2.9-.7-4.6s.2-3.2.6-4.5,1.1-2.5,1.9-3.5c.8-1,1.9-1.7,3.1-2.2,1.2-.5,2.7-.8,4.2-.8s3.3.3,4.5.9c1.3.6,2.3,1.4,3.1,2.4.8,1,1.4,2.1,1.7,3.5s.5,2.7.5,4.1v1.8h-13.6v.3c0,1.4.4,2.5,1.1,3.3.8.8,1.9,1.2,3.6,1.2s2.2-.2,3-.7c.8-.5,1.5-1.1,2.2-1.8l3,3.7c-.9,1.1-2.2,2-3.7,2.6-1.5.6-3.2.9-5.2.9ZM217.9,29.3c-1.2,0-2.2.4-2.8,1.2-.7.8-1,1.9-1,3.2v.3h7.4v-.4c0-1.3-.3-2.3-.9-3.1-.6-.8-1.5-1.2-2.7-1.2Z"/>
      <path class="cls-1" d="M238.5,47.1c-2,0-3.8-.3-5.2-1s-2.7-1.6-3.8-2.8l3.5-3.6c.8.8,1.6,1.5,2.5,2s2,.7,3.1.7,2-.2,2.5-.5c.5-.4.7-.9.7-1.5,0-1-.7-1.6-2.1-1.8l-2.3-.3c-4.8-.6-7.1-2.8-7.1-6.5s.2-2,.6-2.8.9-1.6,1.7-2.2c.7-.6,1.6-1.1,2.6-1.4,1-.3,2.1-.5,3.4-.5s2.1,0,2.9.2c.8.1,1.6.4,2.3.6.7.3,1.3.6,1.8,1,.6.4,1.1.9,1.6,1.4l-3.4,3.5c-.7-.7-1.4-1.2-2.3-1.6-.8-.4-1.7-.6-2.6-.6s-1.8.2-2.2.5c-.4.3-.6.8-.6,1.3s.2,1,.5,1.3c.3.3.9.5,1.8.7l2.4.3c4.7.6,7,2.7,7,6.4s-.2,2-.6,2.8-1,1.6-1.8,2.2-1.8,1.1-2.9,1.5c-1.1.3-2.4.5-3.7.5Z"/>
      <path class="cls-1" d="M257.9,47.1c-2,0-3.8-.3-5.2-1s-2.7-1.6-3.8-2.8l3.5-3.6c.8.8,1.6,1.5,2.5,2s2,.7,3.1.7,2-.2,2.5-.5c.5-.4.7-.9.7-1.5,0-1-.7-1.6-2.1-1.8l-2.3-.3c-4.8-.6-7.1-2.8-7.1-6.5s.2-2,.6-2.8.9-1.6,1.7-2.2c.7-.6,1.6-1.1,2.6-1.4,1-.3,2.1-.5,3.4-.5s2.1,0,2.9.2c.8.1,1.6.4,2.3.6.7.3,1.3.6,1.8,1,.6.4,1.1.9,1.6,1.4l-3.4,3.5c-.7-.7-1.4-1.2-2.3-1.6-.8-.4-1.7-.6-2.6-.6s-1.8.2-2.2.5c-.4.3-.6.8-.6,1.3s.2,1,.5,1.3c.3.3.9.5,1.8.7l2.4.3c4.7.6,7,2.7,7,6.4s-.2,2-.6,2.8-1,1.6-1.8,2.2-1.8,1.1-2.9,1.5c-1.1.3-2.4.5-3.7.5Z"/>
      <path class="cls-1" d="M279.2,47.1c-1.6,0-3.1-.3-4.3-.8-1.3-.5-2.3-1.3-3.2-2.2-.9-1-1.5-2.1-2-3.5-.4-1.4-.7-2.9-.7-4.6s.2-3.2.6-4.5,1.1-2.5,1.9-3.5c.8-1,1.9-1.7,3.1-2.2,1.2-.5,2.7-.8,4.2-.8s3.3.3,4.5.9c1.3.6,2.3,1.4,3.1,2.4.8,1,1.4,2.1,1.7,3.5s.5,2.7.5,4.1v1.8h-13.6v.3c0,1.4.4,2.5,1.1,3.3.8.8,1.9,1.2,3.6,1.2s2.2-.2,3-.7c.8-.5,1.5-1.1,2.2-1.8l3,3.7c-.9,1.1-2.2,2-3.7,2.6-1.5.6-3.2.9-5.2.9ZM279.1,29.3c-1.2,0-2.2.4-2.8,1.2-.7.8-1,1.9-1,3.2v.3h7.4v-.4c0-1.3-.3-2.3-.9-3.1-.6-.8-1.5-1.2-2.7-1.2Z"/>
      <path class="cls-1" d="M309.7,47.1c-2,0-3.8-.3-5.2-1s-2.7-1.6-3.8-2.8l3.5-3.6c.8.8,1.6,1.5,2.5,2s2,.7,3.1.7,2-.2,2.5-.5c.5-.4.7-.9.7-1.5,0-1-.7-1.6-2.1-1.8l-2.3-.3c-4.8-.6-7.1-2.8-7.1-6.5s.2-2,.6-2.8.9-1.6,1.7-2.2c.7-.6,1.6-1.1,2.6-1.4,1-.3,2.1-.5,3.4-.5s2.1,0,2.9.2c.8.1,1.6.4,2.3.6.7.3,1.3.6,1.8,1,.6.4,1.1.9,1.6,1.4l-3.4,3.5c-.7-.7-1.4-1.2-2.3-1.6-.8-.4-1.7-.6-2.6-.6s-1.8.2-2.2.5c-.4.3-.6.8-.6,1.3s.2,1,.5,1.3c.3.3.9.5,1.8.7l2.4.3c4.7.6,7,2.7,7,6.4s-.2,2-.6,2.8-1,1.6-1.8,2.2-1.8,1.1-2.9,1.5c-1.1.3-2.4.5-3.7.5Z"/>
    </g>
    <rect class="cls-2" x="109" y="16.7" width="6" height="29.9"/>
    <rect class="cls-1" x="292" y="16.7" width="6" height="29.9"/>
    <path class="cls-1" d="M177.7,46.6l-6.4-28.2h6.1l2.7,13.5,1.5,7.8h.1l1.8-7.8,3.1-13.5h6.7l3.1,13.5,1.7,7.8h.1l1.5-7.8,2.7-13.5h5.8l-6.5,28.2h-7l-3.6-15.3-1.4-6.2h-.1l-1.4,6.2-3.6,15.3h-7Z"/>
  </g>
  <polygon class="cls-1" points="38.8 46.6 54 46.6 54 18.4 35.6 0 18.4 0 0 18.4 0 46.6 15.3 46.6 22.8 39 22.8 23.3 11.1 35.1 11.1 23.5 22.9 11.7 31.1 11.7 42.9 23.5 42.9 35.1 31.2 23.3 31.2 39 38.8 46.6"/>
</svg>